<svg xmlns="http://www.w3.org/2000/svg" width="64" height="64" enable-background="new 0 0 64 64" viewBox="0 0 64 64" id="business-monitoring"><pattern id="d" width="23.936" height="23.881" x="-252" y="-168" overflow="visible" patternUnits="userSpaceOnUse" viewBox="0 -23.881 23.936 23.881"><polygon fill="none" points="0 0 23.936 0 23.936 -23.881 0 -23.881"></polygon><polygon fill="#78BFE8" points="23.936 0 0 0 0 -23.881 23.936 -23.881"></polygon></pattern><pattern id="c" width="23.936" height="23.881" x="-252" y="-168" overflow="visible" patternUnits="userSpaceOnUse" viewBox="0 -23.881 23.936 23.881"><polygon fill="none" points="0 0 23.936 0 23.936 -23.881 0 -23.881"></polygon><polygon fill="#75BBA7" points="23.936 0 0 0 0 -23.881 23.936 -23.881"></polygon></pattern><pattern id="a" width="23.936" height="23.881" x="-252" y="-168" overflow="visible" patternUnits="userSpaceOnUse" viewBox="0 -23.881 23.936 23.881"><polygon fill="none" points="0 0 23.936 0 23.936 -23.881 0 -23.881"></polygon><polygon fill="#EF6183" points="23.936 0 0 0 0 -23.881 23.936 -23.881"></polygon></pattern><pattern id="b" width="23.936" height="23.881" x="-252" y="-168" overflow="visible" patternUnits="userSpaceOnUse" viewBox="0 -23.881 23.936 23.881"><polygon fill="none" points="0 0 23.936 0 23.936 -23.881 0 -23.881"></polygon><polygon fill="#CF9278" points="23.936 0 0 0 0 -23.881 23.936 -23.881"></polygon></pattern><path fill="url(#a)" d="M35.835,37.382c1.119-1.119,2.051-2.365,2.777-3.689l-14.493-4.936l-11.981,8.684
		C18.693,43.937,29.3,43.917,35.835,37.382z"></path><path fill="url(#b)" d="M39.486,31.917c2.512-6.084,1.295-13.355-3.65-18.3
		c-0.952-0.952-1.982-1.756-3.071-2.424l-7.458,15.896L39.486,31.917z"></path><path fill="url(#c)" d="M31.037,10.251C28.8,9.22,26.376,8.7,23.952,8.7c-4.308,0-8.606,1.639-11.883,4.916
		c-6.103,6.103-6.525,15.769-1.246,22.363l12.344-8.959L31.037,10.251z"></path><path fill="url(#d)" d="M63.999,9.735c-0.001-0.168-0.034-0.332-0.099-0.486
		c-0.001-0.002-0.002-0.005-0.003-0.007c-0.05-0.118-0.112-0.232-0.197-0.331c-0.016-0.019-0.041-0.027-0.058-0.045
		c-0.04-0.042-0.091-0.069-0.136-0.105c-0.087-0.068-0.169-0.137-0.27-0.181c-0.046-0.02-0.098-0.022-0.147-0.037
		c-0.101-0.031-0.199-0.073-0.306-0.078l-4.641-0.196c-0.696,0-1.263,0.536-1.292,1.221c-0.014,0.34,0.104,0.666,0.335,0.917
		c0.231,0.251,0.545,0.397,0.886,0.412l1.199,0.051l-6.165,4.911c-0.306,0.243-0.481,0.607-0.481,0.998v11.963l-4.981,0.161
		c0.158-1.129,0.25-2.265,0.25-3.402c0-6.143-2.335-12.275-7.006-16.946c-9.332-9.342-24.541-9.342-33.883,0s-9.341,24.541,0,33.883
		c2.521,2.521,5.479,4.363,8.635,5.529l-9.92,11.804c-0.453,0.538-0.383,1.344,0.156,1.798c0.23,0.193,0.521,0.299,0.82,0.299
		c0.378,0,0.735-0.166,0.977-0.455l10.632-12.652c1.853,0.448,3.753,0.684,5.646,0.684c4.357,0,8.723-1.178,12.56-3.552L48.67,59.45
		c1.678,1.874,3.719,2.934,5.76,2.993c0.059,0,0.108,0.01,0.167,0.01c1.629,0,3.15-0.667,4.396-1.913
		c1.295-1.295,1.953-2.875,1.904-4.573c-0.059-2.031-1.119-4.082-2.993-5.75L44.343,38.059c1.278-2.059,2.196-4.281,2.78-6.569
		l6.819-0.24c0.692-0.022,1.234-0.583,1.234-1.275V17.393l5.931-4.724l-0.174,1.502c-0.04,0.339,0.055,0.672,0.267,0.939
		c0.212,0.267,0.515,0.436,0.85,0.475c0.05,0.006,0.101,0.009,0.151,0.009c0.647,0,1.191-0.485,1.265-1.128l0.531-4.578
		c0.005-0.045,0.001-0.091,0.002-0.137C63.999,9.746,64,9.743,64,9.739C64,9.738,63.999,9.736,63.999,9.735z M10.676,38.776
		c-7.31-7.32-7.31-19.233,0-26.553c5.966-5.966,14.974-7.065,22.068-3.307c1.619,0.844,3.13,1.953,4.484,3.307
		c3.66,3.66,5.485,8.468,5.485,13.276c0,2.698-0.579,5.407-1.727,7.899l-0.01,0.01c-0.049,0.108-0.098,0.216-0.157,0.324
		c-0.883,1.825-2.08,3.533-3.591,5.044c-3.66,3.65-8.468,5.485-13.276,5.485C19.144,44.261,14.336,42.426,10.676,38.776z"></path></svg>