<svg xmlns="http://www.w3.org/2000/svg" viewBox="0 0 64 64" id="analytics"><path fill="#f5f9f9" d="M58,20.08,38.51,17.36,9.86,20.08V49.61a3.53,3.53,0,0,0,3.53,3.53H54.47A3.52,3.52,0,0,0,58,49.61Z"></path><path fill="#e6edf2" d="M38.51,17.36l-2.61.25,17.7,2.47V49.61a3.52,3.52,0,0,1-3.53,3.53h4.4A3.52,3.52,0,0,0,58,49.61V20.08Z"></path><path fill="#62d9fa" d="M13.39,10.86a3.53,3.53,0,0,0-3.53,3.53v5.69H58V14.39a3.52,3.52,0,0,0-3.53-3.53Z"></path><path fill="#0acffb" d="M50.07,10.86a3.52,3.52,0,0,1,3.53,3.53v5.69H58V14.39a3.52,3.52,0,0,0-3.53-3.53Z"></path><path fill="#8d9ca7" d="M32.19 42.69H42a2.82 2.82 0 110 5.63H32.19a2.82 2.82 0 110-5.63zM54 45.51a2.82 2.82 0 11-2.82-2.82A2.81 2.81 0 0154 45.51z"></path><path fill="#fd8187" d="M15.51,24A9.51,9.51,0,1,0,25,33.48H15.51Z"></path><path fill="#fce87b" d="M18.94,23.51v6.54h6.55A6.54,6.54,0,0,0,18.94,23.51Z"></path><path fill="#fc636e" d="M15.51,24a9.59,9.59,0,0,0-2.85.43v9.07h2.85Zm6.66,9.5a9.52,9.52,0,0,1-8.08,9.41,9.4,9.4,0,0,0,1.42.1A9.51,9.51,0,0,0,25,33.48Z"></path><circle cx="17.39" cy="47.68" r="1"></circle><circle cx="24.54" cy="47.68" r="1"></circle><circle cx="13.81" cy="47.68" r="1"></circle><circle cx="20.96" cy="47.68" r="1"></circle><path d="M26.77 16.56H53.33a1 1 0 100-2H26.77a1 1 0 000 2zM15.62 16.56h4.47a1 1 0 000-2H15.62a1 1 0 100 2z"></path><path d="M54.47,9.86H13.39a4.54,4.54,0,0,0-4.53,4.53v11a10.38,10.38,0,0,0,0,16.15v8a4.54,4.54,0,0,0,4.53,4.53H54.47A4.54,4.54,0,0,0,59,49.61V14.39A4.54,4.54,0,0,0,54.47,9.86Zm-41.08,2H54.47A2.53,2.53,0,0,1,57,14.39v4.69H10.86V14.39A2.54,2.54,0,0,1,13.39,11.86ZM7,33.48A8.53,8.53,0,0,1,14.51,25v8.45a1,1,0,0,0,1,1H24a8.51,8.51,0,0,1-17-1ZM54.47,52.14H13.39a2.54,2.54,0,0,1-2.53-2.53V42.86A10.4,10.4,0,0,0,15.51,44,10.52,10.52,0,0,0,26,33.48a1,1,0,0,0-1-1H16.51V24a1,1,0,0,0-.3-.71,1,1,0,0,0-.7-.29,10.4,10.4,0,0,0-4.65,1.13v-3H57V49.61A2.53,2.53,0,0,1,54.47,52.14Z"></path><path d="M51.07 24.61h2a1 1 0 100-2h-2c-3.08 0-4.27 2.41-5.15 4.16-.69 1.39-1.08 2.05-1.67 2.05a2.93 2.93 0 01-2.21-1 4.83 4.83 0 00-3.53-1.53c-2 0-2.92 1.42-3.69 2.55s-1.15 1.64-2 1.67H30.52a1 1 0 000 2h2.29c1.94 0 2.9-1.41 3.66-2.54s1.18-1.68 2-1.68a2.93 2.93 0 012.21 1 4.83 4.83 0 003.53 1.53c1.9 0 2.73-1.68 3.47-3.16C48.66 25.76 49.36 24.61 51.07 24.61zM33.26 38.12V37.05a1 1 0 00-2 0v1.07a1 1 0 002 0z"></path><path d="M39.39 38.12V32.84a1 1 0 10-2 0v5.28a1 1 0 002 0zM45.51 38.12V35.39a1 1 0 00-2 0v2.73a1 1 0 002 0zM49.64 29.19v8.93a1 1 0 002 0V29.19a1 1 0 10-2 0zM42 41.69H32.19a3.82 3.82 0 100 7.63H42a3.82 3.82 0 100-7.63zm0 5.63H32.19a1.82 1.82 0 110-3.63H42a1.82 1.82 0 110 3.63zM51.14 41.69A3.82 3.82 0 1055 45.51 3.83 3.83 0 0051.14 41.69zm0 5.63A1.82 1.82 0 1153 45.51 1.82 1.82 0 0151.14 47.32zM18.94 22.51a1 1 0 00-1 1v6.54a1 1 0 001 1h6.55a1 1 0 00.7-.29 1 1 0 00.3-.71A7.55 7.55 0 0018.94 22.51zm1 6.54V24.6a5.56 5.56 0 014.46 4.45z"></path></svg>