<svg xmlns="http://www.w3.org/2000/svg" viewBox="0 0 48 48" id="patient-monitor"><rect width="42" height="34" x="3" y="7" fill="#9abf34" rx="4"></rect><path fill="#94af33" d="M45,11V37a4,4,0,0,1-4,4H38a4,4,0,0,0,4-4V11a4,4,0,0,0-4-4h3A4,4,0,0,1,45,11Z"></path><rect width="34" height="22" x="7" y="11" fill="#e0dfd1" rx="1"></rect><path fill="#333" d="M41,6H7a5.006,5.006,0,0,0-5,5V37a5.006,5.006,0,0,0,5,5H41a5.006,5.006,0,0,0,5-5V11A5.006,5.006,0,0,0,41,6Zm3,31a3,3,0,0,1-3,3H7a3,3,0,0,1-3-3V11A3,3,0,0,1,7,8H41a3,3,0,0,1,3,3Z"></path><path fill="#333" d="M40 10H8a2 2 0 00-2 2V32a2 2 0 002 2H40a2 2 0 002-2V12A2 2 0 0040 10zM8 32V12H40V32zM40 36H37a1 1 0 000 2h3a1 1 0 000-2zM33 36H30a1 1 0 000 2h3a1 1 0 000-2z"></path><path fill="#333" d="M36,20H28a1,1,0,0,0-.919.606l-1.656,3.863-1.439-8.633a1,1,0,0,0-1.881-.283L19.382,21H12a1,1,0,0,0,0,2h8a1,1,0,0,0,.895-.553l1.624-3.25,1.5,8.967a1,1,0,0,0,1.905.23L28.659,22H36a1,1,0,0,0,0-2Z"></path></svg>